<svg width="423" height="411" viewBox="0 0 423 411" fill="none" xmlns="http://www.w3.org/2000/svg">
<g clip-path="url(#clip0_1603_1892)">
<rect width="423" height="411" rx="40" fill="white"/>
<g clip-path="url(#clip1_1603_1892)">
<path d="M301.085 117.084H299.233V66.3586C299.233 58.5722 296.138 51.1047 290.63 45.5989C285.122 40.0931 277.65 37 269.86 37H162.343C154.553 37 147.082 40.0931 141.574 45.5989C136.065 51.1047 132.971 58.5722 132.971 66.3586V344.641C132.971 352.428 136.065 359.895 141.574 365.401C147.082 370.907 154.553 374 162.343 374H269.862C277.652 374 285.124 370.907 290.632 365.401C296.14 359.895 299.235 352.428 299.235 344.641V153.191H301.085V117.084Z" fill="#3F3D56"/>
<path d="M293.246 64.3941V346.607C293.246 352.511 290.899 358.172 286.723 362.347C282.547 366.522 276.884 368.868 270.978 368.871H161.249C155.34 368.871 149.673 366.526 145.494 362.35C141.315 358.175 138.967 352.511 138.966 346.605V64.3941C138.968 58.4886 141.316 52.8256 145.495 48.6506C149.674 44.4757 155.341 42.1306 161.249 42.1313H174.559C173.906 43.7378 173.657 45.4802 173.835 47.2052C174.013 48.9303 174.612 50.5853 175.58 52.0247C176.548 53.4641 177.854 54.6439 179.385 55.4603C180.916 56.2768 182.624 56.7049 184.359 56.707H246.916C248.651 56.7047 250.359 56.2763 251.89 55.4596C253.42 54.643 254.727 53.4629 255.694 52.0233C256.662 50.5837 257.261 48.9285 257.438 47.2033C257.616 45.4782 257.367 43.7358 256.713 42.1293H270.971C276.877 42.1304 282.541 44.4756 286.718 48.6495C290.895 52.8234 293.242 58.4843 293.244 64.3876L293.246 64.3941Z" fill="#E6E6E6"/>
<path d="M281.555 354.139H150.658C149.54 354.138 148.469 353.694 147.679 352.904C146.889 352.114 146.444 351.044 146.443 349.927V74.8756C146.444 73.7588 146.889 72.688 147.679 71.8983C148.469 71.1086 149.54 70.6644 150.658 70.6631H281.555C282.672 70.6644 283.744 71.1086 284.534 71.8983C285.324 72.688 285.768 73.7588 285.769 74.8756V349.927C285.768 351.044 285.324 352.114 284.534 352.904C283.744 353.694 282.672 354.138 281.555 354.139Z" fill="white"/>
<path d="M215.61 163.527C235.528 163.527 251.675 147.388 251.675 127.48C251.675 107.572 235.528 91.4327 215.61 91.4327C195.693 91.4327 179.546 107.572 179.546 127.48C179.546 147.388 195.693 163.527 215.61 163.527Z" fill="#E6E6E6"/>
<path d="M215.115 158.647C232.336 158.647 246.296 144.693 246.296 127.48C246.296 110.267 232.336 96.3128 215.115 96.3128C197.893 96.3128 183.933 110.267 183.933 127.48C183.933 144.693 197.893 158.647 215.115 158.647Z" fill="white"/>
<path d="M215.809 109.802C212.293 109.802 208.855 110.844 205.932 112.797C203.008 114.749 200.729 117.525 199.384 120.772C198.038 124.019 197.686 127.592 198.372 131.039C199.058 134.486 200.751 137.652 203.238 140.137C205.724 142.622 208.892 144.315 212.34 145C215.789 145.686 219.364 145.334 222.612 143.989C225.861 142.644 228.637 140.367 230.591 137.444C232.544 134.522 233.587 131.086 233.587 127.572C233.587 122.859 231.714 118.339 228.38 115.007C225.046 111.674 220.524 109.802 215.809 109.802ZM215.809 115.133C216.864 115.133 217.895 115.446 218.772 116.032C219.649 116.617 220.333 117.45 220.736 118.424C221.14 119.398 221.246 120.47 221.04 121.504C220.834 122.538 220.326 123.488 219.58 124.234C218.834 124.979 217.884 125.487 216.849 125.693C215.815 125.899 214.742 125.793 213.768 125.389C212.793 124.986 211.96 124.303 211.374 123.426C210.788 122.549 210.475 121.519 210.475 120.464C210.475 119.764 210.613 119.071 210.881 118.424C211.149 117.777 211.542 117.19 212.037 116.695C212.533 116.2 213.121 115.807 213.768 115.539C214.415 115.271 215.108 115.133 215.809 115.133ZM215.809 140.797C213.702 140.787 211.629 140.264 209.77 139.272C207.911 138.281 206.323 136.851 205.142 135.107C205.227 131.553 212.253 129.596 215.809 129.596C219.365 129.596 226.39 131.553 226.476 135.107C225.294 136.85 223.705 138.279 221.846 139.271C219.988 140.262 217.916 140.787 215.809 140.798V140.797Z" fill="#6C63FF"/>
<path d="M245.374 175.64H182.98V180.328H245.374V175.64Z" fill="#E6E6E6"/>
<path d="M253.155 187.821H174.632V192.508H253.155V187.821Z" fill="#E6E6E6"/>
<path d="M271.414 222.807H160.799V333.37H271.414V222.807Z" fill="#E6E6E6"/>
<path d="M268.492 225.146H162.557V331.031H268.492V225.146Z" fill="white"/>
<path d="M225.61 235.367H184.374V238.465H225.61V235.367Z" fill="#E6E6E6"/>
<path d="M248.052 244.462H184.374V247.56H248.052V244.462Z" fill="#6C63FF"/>
<path d="M236.932 253.124H185.035V256.221H236.932V253.124Z" fill="#E6E6E6"/>
<path d="M214.67 262.627H184.374V265.725H214.67V262.627Z" fill="#E6E6E6"/>
<path d="M230.098 271.91H184.374V275.008H230.098V271.91Z" fill="#6C63FF"/>
<path d="M225.61 281.251H184.374V284.349H225.61V281.251Z" fill="#E6E6E6"/>
<path d="M248.052 290.345H184.374V293.443H248.052V290.345Z" fill="#6C63FF"/>
<path d="M236.932 299.007H185.035V302.104H236.932V299.007Z" fill="#E6E6E6"/>
<path d="M214.67 308.51H184.374V311.608H214.67V308.51Z" fill="#E6E6E6"/>
<path d="M230.098 317.793H184.374V320.891H230.098V317.793Z" fill="#E6E6E6"/>
<path d="M369.491 277.373C369.196 277.889 368.802 278.341 368.332 278.705C367.862 279.069 367.324 279.336 366.751 279.493C366.177 279.649 365.579 279.69 364.989 279.615C364.399 279.54 363.83 279.35 363.314 279.055C362.798 278.76 362.345 278.366 361.981 277.896C361.617 277.427 361.349 276.89 361.193 276.316C361.037 275.743 360.995 275.145 361.07 274.555C361.145 273.966 361.336 273.397 361.631 272.881C361.641 272.863 361.651 272.846 361.662 272.828C361.788 272.616 361.931 272.414 362.088 272.224L358.28 245.095L358.166 244.282L357.393 238.747L357.279 237.949L357.7 237.969L365.078 238.306L367.056 238.395L367.304 243.445L368.707 271.837C369.44 272.538 369.916 273.465 370.058 274.469C370.2 275.473 370 276.496 369.491 277.373Z" fill="#FFB8B8"/>
<path d="M358.188 244.528L367.556 243.669C368.042 243.623 368.49 243.387 368.803 243.012C369.115 242.638 369.267 242.155 369.224 241.669L367.489 222.196C367.406 221.267 367.141 220.364 366.709 219.538C366.277 218.712 365.686 217.979 364.97 217.381C364.255 216.783 363.428 216.331 362.538 216.052C361.648 215.774 360.712 215.673 359.782 215.756C358.853 215.839 357.95 216.104 357.123 216.536C356.296 216.968 355.563 217.558 354.965 218.273C354.366 218.989 353.915 219.815 353.636 220.704C353.357 221.594 353.256 222.53 353.339 223.459C353.351 223.593 353.367 223.727 353.386 223.86L356.196 242.96C356.26 243.397 356.48 243.797 356.815 244.087C357.149 244.376 357.577 244.535 358.019 244.536C358.076 244.537 358.132 244.534 358.188 244.528Z" fill="#6C63FF"/>
<path d="M365.289 228.797C366.237 226.114 366.281 223.195 365.414 220.485C364.548 217.775 362.818 215.423 360.49 213.786C356.957 211.37 352.123 210.503 346.917 216.698C336.505 229.088 333.778 242.716 333.778 242.716L355.098 246.186C355.098 246.186 362.348 237.327 365.289 228.797Z" fill="#6C63FF"/>
<path d="M330.806 368.357H324.727L321.836 344.922H330.807L330.806 368.357Z" fill="#FFB8B8"/>
<path d="M313.006 373.998H332.11V366.621H320.387C318.429 366.621 316.552 367.398 315.167 368.782C313.783 370.165 313.006 372.042 313.006 373.998Z" fill="#2F2E41"/>
<path d="M380.782 363.058L375.011 364.965L364.906 343.621L373.424 340.807L380.782 363.058Z" fill="#FFB8B8"/>
<path d="M365.651 373.998L383.79 368.006L381.474 361.001L370.343 364.678C369.423 364.982 368.571 365.464 367.837 366.097C367.103 366.73 366.501 367.501 366.066 368.367C365.63 369.232 365.369 370.175 365.298 371.141C365.227 372.108 365.347 373.079 365.651 373.998Z" fill="#2F2E41"/>
<path d="M351.905 207.642C358.631 207.642 364.083 202.192 364.083 195.47C364.083 188.747 358.631 183.297 351.905 183.297C345.18 183.297 339.727 188.747 339.727 195.47C339.727 202.192 345.18 207.642 351.905 207.642Z" fill="#FFB8B8"/>
<path d="M341.243 361.834L346.888 324.593C346.948 324.195 347.144 323.831 347.443 323.563C347.743 323.294 348.126 323.137 348.528 323.12C348.929 323.102 349.325 323.225 349.646 323.466C349.968 323.708 350.195 324.054 350.29 324.444L358.887 359.934C359.022 360.478 359.356 360.951 359.823 361.262C360.289 361.572 360.855 361.697 361.409 361.612L385.122 357.803C385.436 357.752 385.736 357.635 386.002 357.459C386.267 357.283 386.492 357.052 386.661 356.782C386.829 356.513 386.938 356.21 386.98 355.894C387.022 355.579 386.996 355.258 386.904 354.953L355.983 253.06C355.896 252.771 355.885 252.463 355.953 252.168L356.983 247.708C357.096 247.224 357.043 246.717 356.834 246.267C356.625 245.816 356.271 245.449 355.829 245.223C351.618 243.076 340.954 238.611 332.906 243.501C332.645 243.661 332.419 243.871 332.242 244.121C332.065 244.37 331.94 244.653 331.876 244.952L307.721 358.427C307.655 358.735 307.656 359.054 307.723 359.363C307.789 359.671 307.921 359.962 308.108 360.215C308.296 360.469 308.535 360.68 308.81 360.835C309.085 360.99 309.39 361.084 309.704 361.112L338.837 363.72C338.904 363.726 338.97 363.729 339.036 363.729C339.569 363.728 340.085 363.536 340.489 363.189C340.894 362.841 341.16 362.36 341.241 361.833L341.243 361.834Z" fill="#2F2E41"/>
<path d="M359.98 186.87C359.062 186.318 358.248 185.61 357.573 184.778C357.24 184.358 357.021 183.859 356.937 183.33C356.852 182.8 356.906 182.258 357.092 181.755C357.707 180.398 359.536 179.971 360.953 180.431C362.37 180.892 363.464 182.003 364.499 183.074C365.411 184.016 366.349 185.003 366.78 186.242C367.211 187.48 366.99 189.051 365.914 189.803C364.858 190.54 363.34 190.238 362.325 189.446C361.309 188.654 360.68 187.479 360.081 186.339L359.98 186.87Z" fill="#2F2E41"/>
<path d="M364.105 183.401C364.172 179.972 368.084 177.512 371.462 178.121C374.84 178.729 377.436 181.607 378.735 184.782C381.481 191.489 379.42 199.143 376.774 205.894C374.129 212.644 370.854 219.492 371.24 226.73C371.502 230.642 372.815 234.41 375.042 237.638C377.269 240.865 380.326 243.432 383.891 245.066C380.08 246.794 375.523 245.009 372.319 242.317C365.205 236.338 362.459 225.692 365.794 217.02C367.438 212.743 370.337 209.083 372.6 205.098C374.863 201.113 376.523 196.417 375.355 191.986C374.186 187.555 369.214 183.967 364.963 185.682L364.105 183.401Z" fill="#2F2E41"/>
<path d="M351.175 200.871C352.237 199.078 353.307 196.724 351.367 195.156C350.945 194.831 350.463 194.593 349.948 194.457C349.432 194.321 348.895 194.289 348.368 194.363C346.18 194.627 343.798 194.736 341.68 193.941C340.886 193.668 340.155 193.238 339.53 192.677C338.905 192.116 338.399 191.435 338.043 190.675C336.952 188.086 338.319 184.94 340.604 183.303C342.002 182.339 343.654 181.808 345.353 181.778C347.051 181.748 348.721 182.22 350.153 183.134C353.113 181.828 356.704 182.409 359.393 184.208C362.083 186.007 363.923 188.888 364.922 191.964C365.843 194.612 366.002 197.465 365.38 200.198C364.88 202.1 363.928 203.853 362.606 205.309C361.284 206.765 359.631 207.881 357.786 208.563C357.067 208.846 356.287 208.936 355.522 208.823C354.758 208.71 354.037 208.398 353.431 207.919C353.431 207.919 351.753 206.454 351.228 204.69C350.824 203.334 350.608 201.829 351.175 200.871Z" fill="#2F2E41"/>
<path d="M315.048 211.732C315.109 212 315.149 212.271 315.167 212.545L336.466 224.827L341.643 221.848L347.162 229.069L338.51 235.234C337.811 235.732 336.969 235.99 336.11 235.969C335.252 235.948 334.424 235.649 333.75 235.118L311.785 217.799C310.793 218.166 309.714 218.222 308.689 217.961C307.665 217.7 306.744 217.133 306.05 216.336C305.355 215.539 304.921 214.549 304.803 213.499C304.685 212.449 304.89 211.387 305.39 210.456C305.891 209.525 306.663 208.769 307.604 208.287C308.545 207.806 309.611 207.622 310.659 207.76C311.707 207.899 312.688 208.353 313.472 209.063C314.255 209.772 314.804 210.703 315.045 211.732H315.048Z" fill="#FFB8B8"/>
<path d="M337.178 225.408L344.062 234.326C344.258 234.58 344.506 234.788 344.79 234.937C345.074 235.086 345.386 235.172 345.706 235.19C346.026 235.207 346.346 235.156 346.644 235.038C346.942 234.921 347.212 234.741 347.434 234.511L355.227 226.422C356.546 225.442 357.42 223.977 357.659 222.352C357.897 220.726 357.48 219.072 356.499 217.754C355.517 216.436 354.052 215.562 352.426 215.324C350.8 215.085 349.145 215.502 347.826 216.483C347.759 216.533 347.693 216.585 347.627 216.638L337.854 222.1C337.574 222.256 337.331 222.471 337.142 222.73C336.953 222.989 336.822 223.285 336.757 223.599C336.693 223.913 336.697 224.237 336.77 224.55C336.842 224.862 336.981 225.155 337.177 225.409L337.178 225.408Z" fill="#6C63FF"/>
<path d="M87.334 246.662C87.0908 246.773 86.8568 246.903 86.6344 247.052L64.3957 237.565L63.6024 231.709L54.7163 231.655L55.2414 245.085L84.5941 252.845C84.6559 253.049 84.7301 253.249 84.8162 253.444C85.2406 254.349 85.9231 255.109 86.7781 255.627C87.633 256.146 88.6222 256.401 89.6214 256.359C90.6207 256.318 91.5854 255.982 92.3945 255.395C93.2035 254.807 93.8209 253.994 94.1689 253.057C94.5169 252.119 94.5802 251.1 94.3507 250.127C94.1212 249.155 93.6092 248.271 92.8791 247.588C92.1489 246.905 91.233 246.453 90.2466 246.288C89.2601 246.124 88.247 246.254 87.3345 246.663L87.334 246.662Z" fill="#A0616A"/>
<path d="M51.4845 368.358H57.5633L60.4549 344.922H51.4835L51.4845 368.358Z" fill="#A0616A"/>
<path d="M61.9052 366.622H50.182V373.997H69.2865C69.2865 372.04 68.5089 370.164 67.1246 368.78C65.7403 367.396 63.8629 366.619 61.9052 366.619V366.622Z" fill="#2F2E41"/>
<path d="M27.8436 366.641L33.8927 367.236L39.0696 344.197L30.1413 343.32L27.8436 366.641Z" fill="#A0616A"/>
<path d="M38.388 365.936L26.7234 364.787L26 372.128L45.0085 373.999C45.1035 373.035 45.0076 372.062 44.7263 371.135C44.445 370.208 43.9837 369.346 43.3689 368.597C42.7541 367.848 41.9977 367.228 41.143 366.771C40.2883 366.314 39.3525 366.031 38.388 365.936Z" fill="#2F2E41"/>
<path d="M49.7923 206.853C56.5179 206.853 61.9702 201.403 61.9702 194.681C61.9702 187.958 56.5179 182.508 49.7923 182.508C43.0666 182.508 37.6143 187.958 37.6143 194.681C37.6143 201.403 43.0666 206.853 49.7923 206.853Z" fill="#A0616A"/>
<path d="M58.9219 363.618C59.4444 363.62 59.9507 363.436 60.3512 363.101C60.7517 362.765 61.0208 362.299 61.1109 361.785C64.2549 344.331 74.5418 287.248 74.7877 285.666C74.7932 285.63 74.7959 285.593 74.7956 285.556V281.3C74.7961 281.145 74.7477 280.994 74.6573 280.868L73.2987 278.966C73.2342 278.874 73.1495 278.799 73.0511 278.745C72.9528 278.691 72.8435 278.661 72.7315 278.656C64.9858 278.293 39.6185 277.229 38.3928 278.759C37.1621 280.296 37.5995 284.958 37.6986 285.876L37.6937 285.972L26.2972 358.823C26.2079 359.404 26.3511 359.997 26.6959 360.473C27.0406 360.95 27.5591 361.271 28.1392 361.368L35.2572 362.54C35.7873 362.625 36.3304 362.517 36.7876 362.236C37.2449 361.955 37.5859 361.519 37.7487 361.007C39.9502 353.976 47.3325 330.321 49.8909 321.168C49.9073 321.111 49.944 321.061 49.9942 321.028C50.0445 320.996 50.1048 320.982 50.1642 320.991C50.2235 320.999 50.2778 321.029 50.317 321.074C50.3562 321.119 50.3776 321.177 50.3773 321.237C50.2494 329.963 49.9405 352.223 49.8319 359.911L49.8205 360.74C49.8158 361.3 50.0217 361.842 50.3974 362.258C50.7732 362.675 51.2915 362.935 51.8499 362.988L58.7136 363.609C58.7828 363.616 58.8523 363.619 58.9219 363.618Z" fill="#2F2E41"/>
<path d="M57.5212 211.639C59.6463 212.902 60.918 215.222 61.6479 217.586C62.9989 221.958 63.8121 226.478 64.0695 231.046L64.841 244.724L74.3881 280.986C66.1133 287.984 61.3405 286.394 50.2013 280.669C39.0621 274.945 37.7899 282.578 37.7899 282.578L35.5626 251.724L32.3804 218.008C33.0949 217.148 33.9035 216.371 34.7911 215.692C37.7325 213.405 41.1547 211.815 44.7999 211.043C48.4451 210.27 52.2182 210.335 55.8349 211.231L57.5212 211.639Z" fill="#E6E6E6"/>
<path d="M60.622 253.985C60.3654 254.081 60.1167 254.197 59.8783 254.332L37.8885 243.33L37.5236 237.37L28.453 236.745L27.9671 250.331L57.3526 260.044C57.5923 261.073 58.1399 262.005 58.9225 262.716C59.7051 263.426 60.6856 263.882 61.7336 264.022C62.7816 264.162 63.8473 263.979 64.7891 263.499C65.7309 263.019 66.504 262.263 67.0057 261.333C67.5073 260.403 67.7137 259.342 67.5973 258.292C67.481 257.241 67.0474 256.251 66.3544 255.453C65.6613 254.655 64.7415 254.087 63.7174 253.824C62.6933 253.561 61.6135 253.616 60.6215 253.982L60.622 253.985Z" fill="#A0616A"/>
<path d="M32.5391 218.16C27.1292 220.068 26.1757 240.745 26.1757 240.745C32.5406 237.247 40.1782 242.972 40.1782 242.972C40.1782 242.972 41.7693 237.564 43.6787 230.567C44.2553 228.598 44.3243 226.516 43.8792 224.514C43.4341 222.512 42.4895 220.655 41.1332 219.116C41.1332 219.116 37.9495 216.25 32.5391 218.16Z" fill="#E6E6E6"/>
<path d="M38.8752 197.9C40.3924 196.687 42.4625 198.891 42.4625 198.891L43.6763 187.973C43.6763 187.973 51.2624 188.881 56.1184 187.67C60.9745 186.458 61.7327 192.068 61.7327 192.068C61.983 189.802 62.0338 187.518 61.8844 185.243C61.5809 182.513 57.6362 179.783 50.6565 177.963C43.6768 176.144 40.0354 184.03 40.0354 184.03C35.1774 186.456 37.356 199.113 38.8752 197.9Z" fill="#2F2E41"/>
</g>
</g>
<defs>
<clipPath id="clip0_1603_1892">
<rect width="423" height="411" rx="40" fill="white"/>
</clipPath>
<clipPath id="clip1_1603_1892">
<rect width="361" height="337" fill="white" transform="translate(26 37)"/>
</clipPath>
</defs>
</svg>
